<svg width="120" height="120" viewBox="0 0 120 120" fill="none" xmlns="http://www.w3.org/2000/svg">
<path d="M115 46.5999C115.313 45.3152 115.135 43.9598 114.5 42.7999C112.88 39.9881 110.72 37.524 108.145 35.5489C105.57 33.5738 102.63 32.1266 99.4941 31.2904C96.3586 30.4542 93.0886 30.2455 89.8721 30.6761C86.6551 31.1068 83.5556 32.1683 80.7501 33.7999L70.0001 39.9999L45.0001 28.2499C44.2893 27.8817 43.5005 27.6895 42.7001 27.6895C41.8996 27.6895 41.1108 27.8817 40.4001 28.2499L25.4001 36.8999C24.6588 37.3275 24.0396 37.9382 23.6019 38.6736C23.1642 39.409 22.9225 40.2444 22.9001 41.0999C22.8759 41.9617 23.0749 42.8152 23.4779 43.5774C23.8809 44.3396 24.4742 44.9847 25.2001 45.4499L41.7001 55.85L33.0001 60.85L9.10007 63.75C8.13927 63.869 7.23367 64.264 6.49317 64.8875C5.75267 65.511 5.20912 66.3365 4.92852 67.263C4.64791 68.1895 4.64231 69.1775 4.91241 70.107C5.18252 71.0365 5.71667 71.868 6.45007 72.5L24.1501 87.8C26.4803 90.024 29.4646 91.4385 32.6613 91.835C35.858 92.231 39.0974 91.5875 41.9001 90L112.5 49.6499C113.102 49.3376 113.634 48.9061 114.064 48.3818C114.493 47.8575 114.812 47.2512 115 46.5999ZM37.3501 81.6C36.3896 82.1285 35.2821 82.3265 34.198 82.164C33.1138 82.0015 32.1132 81.487 31.3501 80.7L21.8501 72.55L35.5001 70.9C36.1708 70.814 36.8172 70.593 37.4001 70.25L54.2001 60.6C54.9486 60.168 55.5721 59.5495 56.0106 58.8045C56.4486 58.0595 56.6861 57.214 56.7001 56.35C56.7101 55.492 56.4996 54.6455 56.0881 53.8925C55.6761 53.139 55.0776 52.5045 54.3501 52.05L37.8501 41.5999L43.3501 38.4499L68.3501 50.05C69.0606 50.418 69.8496 50.6105 70.6501 50.6105C71.4506 50.6105 72.2391 50.418 72.9501 50.05L85.7501 42.6499C88.3731 41.1799 91.3776 40.5322 94.3731 40.7907C97.3686 41.0493 100.218 42.2022 102.55 44.0999L37.3501 81.6Z" fill="#008080"/>
</svg>
