<svg width="1024" height="245" viewBox="0 0 1024 245" fill="none" xmlns="http://www.w3.org/2000/svg">
<g clip-path="url(#clip0_191_82)">
<mask id="mask0_191_82" style="mask-type:luminance" maskUnits="userSpaceOnUse" x="0" y="0" width="1024" height="245">
<path d="M0 0H1024V245H0V0Z" fill="white"/>
</mask>
<g mask="url(#mask0_191_82)">
<path d="M1024 0H32.2002V203.2H1024V0Z" fill="#3C4043"/>
<path d="M184.6 147.3C191.337 147.299 197.797 144.623 202.56 139.86C207.323 135.097 210 128.636 210 121.9C210 115.164 207.324 108.703 202.561 103.939C197.798 99.1762 191.337 96.5005 184.6 96.5005C177.864 96.5005 171.403 99.1762 166.639 103.939C161.877 108.703 159.201 115.164 159.201 121.9C159.201 128.637 161.877 135.097 166.639 139.861C171.403 144.624 177.864 147.3 184.6 147.3Z" fill="#202124"/>
<path d="M252.4 163.7C267.543 163.699 282.067 157.683 292.775 146.975C303.483 136.267 309.499 121.744 309.5 106.6C309.5 95.3065 306.151 84.2664 299.877 74.8761C293.603 65.4857 284.685 58.1668 274.251 53.8448C263.817 49.5229 252.336 48.392 241.259 50.5952C230.183 52.7984 220.008 58.2368 212.022 66.2226C204.037 74.2083 198.598 84.3829 196.395 95.4595C194.192 106.536 195.323 118.017 199.645 128.451C203.967 138.885 211.286 147.803 220.676 154.077C230.066 160.352 241.106 163.7 252.4 163.7Z" fill="#202124"/>
<path d="M321.2 134.2C328.148 134.199 334.812 131.439 339.726 126.526C343.39 122.861 345.885 118.193 346.896 113.111C347.907 108.029 347.388 102.761 345.406 97.9738C343.422 93.1867 340.064 89.0952 335.756 86.2163C331.447 83.3375 326.382 81.8006 321.2 81.7998C317.759 81.7995 314.352 82.477 311.173 83.7936C307.995 85.1102 305.106 87.0401 302.673 89.473C300.24 91.906 298.31 94.7943 296.994 97.9732C295.677 101.152 295 104.559 295 108C295 114.949 297.76 121.613 302.674 126.526C305.107 128.959 307.995 130.889 311.174 132.206C314.352 133.522 317.759 134.2 321.2 134.2Z" fill="#202124"/>
<path d="M357.2 127.2C360.997 127.2 364.709 126.073 367.866 123.964C371.023 121.854 373.484 118.856 374.938 115.348C376.887 110.643 376.887 105.357 374.938 100.652C373.974 98.3227 372.56 96.206 370.777 94.4232C368.994 92.6404 366.878 91.2265 364.548 90.2622C361.04 88.8098 357.179 88.43 353.455 89.1708C349.731 89.9116 346.31 91.7397 343.624 94.4242C340.939 97.1094 339.111 100.53 338.37 104.255C337.629 107.979 338.009 111.839 339.462 115.348C340.916 118.856 343.376 121.854 346.534 123.964C349.691 126.074 353.403 127.2 357.2 127.2Z" fill="#202124"/>
<path d="M395.5 123.2C400.523 123.199 405.433 121.708 409.609 118.917C413.785 116.126 417.04 112.159 418.962 107.519C420.884 102.878 421.388 97.7719 420.409 92.8453C419.429 87.9187 417.012 83.393 413.461 79.8401C408.697 75.0771 402.237 72.4014 395.5 72.4014C388.764 72.4014 382.303 75.0771 377.539 79.8401C373.988 83.3926 371.569 87.9184 370.589 92.8453C369.61 97.7722 370.113 102.879 372.035 107.52C373.958 112.161 377.213 116.128 381.39 118.919C385.566 121.71 390.477 123.2 395.5 123.2Z" fill="#202124"/>
<path d="M423.1 104C426.296 104 429.361 102.73 431.621 100.471C433.879 98.2104 435.148 95.1455 435.148 91.9499C435.148 88.7543 433.879 85.6894 431.621 83.4289C429.361 81.1692 426.296 79.8998 423.1 79.8999C421.524 79.8996 419.963 80.2098 418.507 80.8128C417.051 81.4158 415.728 82.2997 414.614 83.414C413.499 84.5284 412.615 85.8514 412.013 87.3074C411.41 88.7634 411.099 90.324 411.1 91.8999C411.099 93.4759 411.409 95.0365 412.012 96.4926C412.615 97.9487 413.499 99.2717 414.613 100.386C415.728 101.5 417.051 102.384 418.507 102.987C419.963 103.59 421.524 103.9 423.1 103.9V104Z" fill="#202124"/>
<path d="M442.4 118.4C446.71 118.4 450.843 116.688 453.89 113.64C455.4 112.131 456.597 110.34 457.414 108.368C458.231 106.397 458.651 104.284 458.651 102.15C458.651 100.016 458.231 97.9026 457.414 95.9312C456.597 93.9597 455.4 92.1684 453.89 90.6598C452.382 89.1507 450.59 87.9537 448.619 87.137C446.647 86.3203 444.534 85.8999 442.4 85.8999C440.266 85.8999 438.153 86.3203 436.182 87.137C434.21 87.9537 432.419 89.1507 430.91 90.6598C428.637 92.932 427.089 95.8274 426.461 98.9798C425.834 102.132 426.155 105.4 427.385 108.369C428.615 111.339 430.698 113.877 433.371 115.663C436.044 117.448 439.186 118.401 442.4 118.4Z" fill="#202124"/>
<path d="M462.8 120.8C464.396 120.8 465.976 120.486 467.45 119.876C468.925 119.265 470.264 118.371 471.393 117.242C472.521 116.114 473.416 114.774 474.026 113.3C474.637 111.826 474.951 110.246 474.95 108.65C474.951 107.054 474.637 105.474 474.026 104C473.416 102.526 472.521 101.186 471.393 100.058C470.264 98.9295 468.925 98.0345 467.45 97.4241C465.976 96.8136 464.396 96.4996 462.8 96.5C461.205 96.4997 459.625 96.8138 458.15 97.4243C456.676 98.0348 455.337 98.9298 454.208 100.058C453.08 101.186 452.185 102.526 451.575 104C450.964 105.474 450.65 107.054 450.65 108.65C450.65 110.246 450.964 111.826 451.574 113.3C452.185 114.774 453.08 116.114 454.208 117.242C455.336 118.371 456.676 119.265 458.15 119.876C459.625 120.486 461.205 120.8 462.8 120.8Z" fill="#202124"/>
<path d="M493.3 132.4C497.992 132.712 502.666 131.565 506.681 129.117C510.696 126.668 513.855 123.038 515.726 118.723C517.596 114.409 518.087 109.622 517.132 105.017C516.176 100.413 513.821 96.2169 510.388 93.0032C508.109 90.87 505.417 89.2276 502.477 88.1777C499.538 87.1279 496.414 86.6931 493.3 86.9002C487.527 87.2832 482.115 89.8465 478.162 94.0709C474.208 98.2952 472.009 103.865 472.009 109.65C472.009 115.436 474.208 121.005 478.162 125.23C482.115 129.454 487.527 132.017 493.3 132.4ZM561.5 112.3C564.976 112.518 568.46 112.022 571.737 110.841C575.014 109.662 578.015 107.823 580.554 105.438C583.093 103.053 585.116 100.173 586.499 96.9762C588.582 92.16 589.129 86.8184 588.065 81.6799C587.001 76.5414 584.378 71.8561 580.554 68.2632C578.015 65.8784 575.014 64.039 571.737 62.8587C568.46 61.6783 564.976 61.1819 561.5 61.4002C554.737 61.4002 548.251 64.0868 543.468 68.869C538.686 73.6512 536 80.1372 536 86.9002C536 93.6632 538.686 100.149 543.468 104.931C548.251 109.714 554.737 112.4 561.5 112.4V112.3Z" fill="#202124"/>
<path d="M590.5 90.3998C596.235 90.3992 601.842 88.6981 606.611 85.5117C611.379 82.3252 615.096 77.7964 617.292 72.4978C618.75 68.9795 619.5 65.2083 619.5 61.3998C619.5 57.5913 618.75 53.8202 617.292 50.3018C615.835 46.7833 613.699 43.5863 611.006 40.8934C608.313 38.2006 605.116 36.0647 601.598 34.6078C596.299 32.4133 590.468 31.8392 584.842 32.9581C579.217 34.077 574.05 36.8386 569.994 40.8938C565.937 44.9492 563.174 50.1165 562.055 55.7423C560.935 61.368 561.509 67.1994 563.704 72.4988C565.9 77.7983 569.617 82.3276 574.387 85.514C579.156 88.7005 584.764 90.4007 590.5 90.3998Z" fill="#202124"/>
<path d="M621.4 66.0001C622.682 66.0131 623.954 65.7718 625.143 65.2902C626.331 64.8086 627.412 64.0962 628.323 63.1943C629.234 62.2923 629.957 61.2186 630.451 60.0354C630.945 58.8521 631.199 57.5827 631.199 56.3006C631.199 55.0185 630.945 53.7491 630.451 52.5658C629.957 51.3826 629.234 50.3089 628.323 49.4069C627.412 48.5049 626.331 47.7926 625.143 47.3109C623.954 46.8293 622.682 46.5881 621.4 46.6011C618.845 46.627 616.403 47.6604 614.605 49.4766C612.807 51.2927 611.799 53.745 611.799 56.3006C611.799 58.8561 612.807 61.3084 614.605 63.1246C616.403 64.9408 618.845 65.9741 621.4 66.0001Z" fill="#202124"/>
<path d="M640.8 67.3C642.569 67.3153 644.324 66.98 645.963 66.3134C647.602 65.6469 649.093 64.6623 650.35 63.4166C651.606 62.1708 652.604 60.6885 653.285 59.0552C653.965 57.4219 654.316 55.6699 654.316 53.9005C654.316 52.131 653.965 50.3791 653.285 48.7458C652.604 47.1125 651.606 45.6302 650.35 44.3844C649.093 43.1386 647.602 42.1541 645.963 41.4875C644.324 40.821 642.569 40.4857 640.8 40.501C637.266 40.5315 633.888 41.9567 631.4 44.4663C628.912 46.9759 627.516 50.3666 627.516 53.9005C627.516 57.4343 628.912 60.8251 631.4 63.3347C633.888 65.8443 637.266 67.2695 640.8 67.3ZM681 80.4C683.195 80.4241 685.373 80.0125 687.408 79.1892C689.443 78.3658 691.295 77.147 692.855 75.6032C694.416 74.0595 695.655 72.2214 696.501 70.1956C697.347 68.1697 697.782 65.9963 697.782 63.801C697.782 61.6057 697.347 59.4322 696.501 57.4064C695.655 55.3805 694.416 53.5425 692.855 51.9988C691.295 50.455 689.443 49.2362 687.408 48.4128C685.373 47.5894 683.195 47.1779 681 47.202C676.629 47.25 672.454 49.0199 669.38 52.1276C666.306 55.2353 664.582 59.43 664.582 63.801C664.582 68.172 666.306 72.3667 669.38 75.4744C672.454 78.5821 676.629 80.352 681 80.4Z" fill="#202124"/>
<path d="M711 85.8001C713.195 85.8242 715.373 85.4126 717.408 84.5893C719.443 83.7659 721.295 82.547 722.855 81.0033C724.416 79.4595 725.655 77.6215 726.501 75.5957C727.347 73.5698 727.782 71.3963 727.782 69.2011C727.782 67.0058 727.347 64.8323 726.501 62.8065C725.655 60.7806 724.416 58.9426 722.855 57.3989C721.295 55.8551 719.443 54.6363 717.408 53.8129C715.373 52.9895 713.195 52.578 711 52.6021C706.629 52.6501 702.454 54.42 699.38 57.5277C696.306 60.6354 694.582 64.83 694.582 69.2011C694.582 73.5721 696.306 77.7667 699.38 80.8744C702.454 83.9821 706.629 85.7521 711 85.8001Z" fill="#202124"/>
<path d="M749.2 101.5C755.134 101.501 760.935 99.7419 765.869 96.4456C770.803 93.1493 774.648 88.4638 776.919 82.9817C779.19 77.4996 779.784 71.4671 778.626 65.6474C777.468 59.8277 774.61 54.4822 770.413 50.287C766.218 46.0905 760.872 43.2325 755.053 42.0744C749.233 40.9163 743.201 41.5103 737.719 43.781C732.236 46.0518 727.551 49.8974 724.255 54.8314C720.958 59.7654 719.199 65.5662 719.2 71.5C719.2 79.4565 722.361 87.0871 727.987 92.7132C733.613 98.3393 741.244 101.5 749.2 101.5Z" fill="#202124"/>
<path d="M775.1 98.5998C777.659 98.5993 780.114 97.5824 781.923 95.7728C783.733 93.9632 784.75 91.509 784.75 88.9498C784.749 86.3907 783.732 83.9367 781.923 82.1271C780.113 80.3175 777.659 79.3006 775.1 79.2998C772.541 79.3003 770.087 80.3172 768.277 82.1268C766.468 83.9364 765.451 86.3906 765.45 88.9498C765.451 91.5089 766.468 93.963 768.277 95.7725C770.087 97.5821 772.541 98.599 775.1 98.5998Z" fill="#202124"/>
<path d="M788.9 111.8C790.444 111.945 792.001 111.783 793.483 111.325C794.964 110.867 796.341 110.122 797.534 109.132C798.727 108.141 799.713 106.926 800.436 105.554C801.159 104.182 801.605 102.681 801.747 101.137C801.89 99.5934 801.727 98.0365 801.267 96.5556C800.808 95.0746 800.061 93.6988 799.069 92.5068C798.077 91.3147 796.861 90.3298 795.488 89.6084C794.116 88.8869 792.614 88.4431 791.07 88.3022C787.956 88.0182 784.857 88.9819 782.453 90.9817C780.049 92.9814 778.537 95.8537 778.249 98.9674C777.962 102.081 778.922 105.182 780.919 107.588C782.916 109.994 785.787 111.509 788.9 111.8Z" fill="#202124"/>
<path d="M183.3 95.8999C187.561 95.8981 191.77 96.8385 195.625 98.6538C199.48 100.469 202.887 103.114 205.6 106.4" stroke="#5F6368" stroke-linecap="round" stroke-linejoin="round"/>
<path d="M321.1 81C326.526 81.0256 331.817 82.6915 336.279 85.779C340.74 88.8665 344.164 93.2313 346.1 98.3M303.8 80.5C305.6 84.2 307.1 88 308.1 91.9M414.2 79.9C415.9 81.7 417.3 83.7 418.5 85.9M369.7 96C369.783 93.615 370.221 91.2557 371 89M434 85.8C435 87.7 435.6 89.8 435.6 91.9M458 95.5C458.5 97 458.9 98.6 459 100.2M471.3 102C472 99.9 473.1 98 474.3 96M560.5 61C564 60.9 567.5 61.4 570.9 62.5M613.7 49.7C614.663 48.5657 615.857 47.6493 617.202 47.0114C618.547 46.3735 620.012 46.0287 621.5 46M627 53.9C626.969 51.693 627.46 49.5099 628.434 47.5288C629.407 45.5477 630.834 43.8246 632.6 42.5M692.6 51.2C694.331 52.7898 695.714 54.7216 696.661 56.8731C697.608 59.0247 698.098 61.3493 698.1 63.7M718.6 71.5C718.7 63.8 721.6 56.4 726.8 50.7M779.8 71.5C779.774 75.6266 778.924 79.7064 777.3 83.5M785.2 88.7C785.2 90.5 784.9 92.2 784.1 93.7" stroke="#3C4043" stroke-miterlimit="10"/>
<path d="M240.8 97.8002L312.8 117.5L320.5 109.7L317.2 97.8002L345.5 110.3L288.5 130.2L337.3 162.7H362L358.9 150.3L346.3 143.9L341 135.9L381.2 153.1L379.2 145.2L374.4 144.2L368.1 136.2L405.4 156.5L429.7 162.7L325.7 194.3L313.2 161.8L257.5 147.3L244.2 150.8L267.5 114L259 118.4L254.7 108H249.6L240.9 97.8002H240.8ZM647.5 47.2002L736.4 81.0002L874 116L861.4 137.8L807.4 120.8L724.5 110.8L731.1 86.8002L671.7 77.5002L676.4 63.8002L659.4 62.4002L647.5 47.2002Z" fill="#80868B"/>
<path d="M185.8 127.2L240.8 97.8002L249.5 108H254.5L258.9 118.4L267.4 114L244.1 150.8L257.4 147.3L313.1 161.8L325.7 194.3L243.9 213.7L185.9 127.2H185.8ZM317.2 97.8002L293 112.1L312.7 117.5L320.5 109.7L317.2 97.8002ZM288.5 130.2L345.5 110.3L409.5 88.2002L443.9 113.3L429.6 117L504.5 138.7L397.8 152.5L368 136L374.3 144L379.1 145.1L381.1 153.1L341 136L346.3 143.9L358.9 150.3L362 162.6H337.4L288.6 130.2H288.5Z" fill="#5F6368"/>
<path d="M409.5 88.2002L443.9 113.3L429.6 117L514.6 142.8L471.2 120.8L485 115L431.7 96.5002L409.5 88.2002Z" fill="#80868B"/>
<path d="M471.2 120.8L647.5 47.2002L659.5 62.4002L676.4 63.8002L671.7 77.5002L731 87.0002L724.4 110.9L807.3 120.9L861.3 137.9L854 167.5L750.5 153.8H553.3L626.9 122.2L514.6 142.9L471.2 120.9V120.8Z" fill="#5F6368"/>
<path d="M979.3 0.3L964 60.8L949 32.4L928.4 107.3L907.8 71.5L895.2 100.1L881 7.6L863.9 128.6L842.2 57.5L824 132.5L804.5 100.2L787.5 149.6C770.5 146.6 753.5 150.8 733.2 150.8C712.6 150.8 691.6 143.8 679.2 144.9C666.6 145.9 649.4 151.9 621.3 149C593.3 146.2 557.3 150.8 557.3 150.8L624.3 123.3C573.3 130 524 132.5 524 132.5C499 132.5 470.4 141.7 470.4 141.7C416.9 144.5 397.7 152.5 397.7 152.5L405.2 156.5L415.7 159.2L392.1 165.2L368.2 168.2C358.2 169.9 341.9 177.6 331 183.3C329.8 181 328.6 180.7 328.6 180.7C327.9 181.6 327.4 182.6 327.2 183.7C326.7 181.7 325.8 179.7 324.6 178C322.8 179.6 321.6 181.8 321 184.2C320.887 182.737 320.405 181.327 319.6 180.1C317.836 181.287 316.365 182.86 315.3 184.7C315.1 182.3 314.1 180.1 312.4 178.3C309.6 180.3 309.6 182.6 309.6 183.1C309.622 181.119 308.989 179.185 307.8 177.6C303.8 180.2 302.2 187.7 302.2 187.7C302.2 186 301.9 184.3 301 182.9C297 183.8 295.9 186.1 295.9 186.1C293.8 178.8 289.3 176.9 289.3 176.9C287.3 183.7 289.8 188.2 289.8 188.2C287.5 188.1 285.1 188.6 283 189.7C284.158 187.927 284.654 185.802 284.4 183.7C282.729 184.083 281.265 185.083 280.3 186.5C280.9 184.5 280.8 182.2 279.9 180.1C278.2 180.8 276.7 182.1 275.6 183.6C276.6 179.4 275 174 275 174C271.6 176.3 270.5 181.8 270.5 181.8C270.316 181.108 269.89 180.505 269.3 180.1C268.778 180.595 268.379 181.206 268.136 181.883C267.893 182.561 267.812 183.286 267.9 184C261.695 178.097 254.295 173.595 246.2 170.8C247.441 169.053 248.231 167.026 248.5 164.9C246.54 164.818 244.618 165.458 243.1 166.7C244.2 163.7 244.2 160.6 243.1 157.7C240.4 158.2 237.7 163.1 237.7 163.1C238 159.4 236.9 155.8 234.7 152.9C227.7 157.9 224.7 163.7 223.7 167.1L165.3 60.8L138 113.8L122.6 39.7L112.9 106.4L79.6 0H74.3L65.7 27.7L55.3 0.3H0V245H1024V0.2H979.3V0.3ZM776 182.9C750.8 176.7 705.1 184.9 705.1 184.9C677.3 182.4 656.1 189.4 656.1 189.4C648.857 183.889 640.175 180.59 631.1 179.9C691.5 156.9 761.4 159.2 783.6 160.7L776 182.9Z" fill="#202124"/>
<path d="M340.9 136L325.7 150.2L342.5 138.4L340.9 136ZM368 136.1L360 144.1L361.6 144.8L370.3 139L368 136.1ZM429.6 117L409.6 136.1L429.6 126.1L427.8 120.8L432.8 118L429.6 117Z" fill="#3C4043"/>
<path d="M333.2 184L334.9 174.4L336.9 184L338.8 168.5L341.3 180.5L343.5 168.2L346.2 178.8M354 173.8L354.8 168.7L355.9 173.8H354ZM361.3 170.6L362.3 165.1L364.7 171.3L365.9 165.5L368.2 170.6M384.3 166.5L384.6 163.8C384.623 163.712 384.675 163.635 384.748 163.58C384.821 163.526 384.909 163.498 385 163.5C385.091 163.497 385.18 163.525 385.253 163.579C385.326 163.634 385.378 163.712 385.4 163.8L385.9 166.5L389 166L389.5 162.3L390.4 166.5L394.4 165.5L395.1 159.5L395.7 165.1L396.5 164.7L396.7 161.9C396.72 161.865 396.749 161.837 396.785 161.82C396.821 161.802 396.861 161.795 396.9 161.8H397V161.9L397.6 164.9L399.1 164.2L399.3 161.6L400.1 164.2M776.8 184C776.8 184 776.6 178.5 771.8 171.3C771.8 171.3 769.8 174.2 769.8 179.8C768.3 177.8 766.5 176.3 764.3 175.2C764.3 175.2 762.7 177.1 765.9 184.9L776.8 184.1V184ZM755.2 184.5C755.289 182.354 755.121 180.206 754.7 178.1C753.756 178.394 752.884 178.884 752.143 179.539C751.402 180.194 750.808 180.999 750.4 181.9C751.223 179.433 751.223 176.766 750.4 174.3C750.4 174.3 745.4 177.7 744.4 182.8C743.7 181 742.7 179.4 741.4 178.1C739.608 180.995 738.933 184.443 739.5 187.8C740.5 193.2 755.2 184.5 755.2 184.5ZM725.2 189.6C725.6 187.6 725.7 185.4 725.5 183.3C724.4 183.7 723.4 184.3 722.5 185.1C722.7 182.8 722.4 180.5 721.7 178.3C720.634 178.515 719.623 178.945 718.729 179.564C717.835 180.183 717.077 180.978 716.5 181.9C716.5 181.9 717 180.9 715.4 177.3C714.263 178.199 713.36 179.36 712.768 180.683C712.176 182.006 711.913 183.453 712 184.9L725.2 189.6ZM707.3 185.1C707.3 185.1 708.2 180.4 706.1 176.7C704.8 177.5 703.8 178.7 703.3 180.1C703.3 180.1 703.5 178.7 702.1 175.8C700.463 177.43 699.469 179.596 699.3 181.9C699.3 181.9 699.5 180.7 696 178.6C695.587 179.721 695.517 180.939 695.8 182.1C694.815 181.303 693.564 180.91 692.3 181C692.3 183 692.9 185.2 693.9 187L707.3 185.1Z" fill="#202124"/>
<path d="M722.7 192.4C722.7 192.4 729.5 186.3 733.3 174.3" stroke="#202124" stroke-miterlimit="10"/>
<path d="M733.3 175.5C733.465 175.549 733.638 175.565 733.809 175.546C733.979 175.528 734.145 175.475 734.296 175.393C734.446 175.31 734.579 175.198 734.686 175.064C734.793 174.929 734.873 174.775 734.92 174.61C734.967 174.444 734.981 174.271 734.961 174.101C734.941 173.93 734.887 173.765 734.803 173.615C734.719 173.465 734.606 173.334 734.47 173.228C734.335 173.122 734.18 173.044 734.014 172.998C733.683 172.907 733.33 172.95 733.031 173.119C732.732 173.287 732.512 173.566 732.418 173.896C732.324 174.225 732.364 174.579 732.529 174.879C732.694 175.18 732.971 175.403 733.3 175.5ZM683.3 174C683.494 174.056 683.698 174.066 683.896 174.03C684.095 173.993 684.282 173.911 684.443 173.79C684.604 173.669 684.735 173.512 684.825 173.331C684.915 173.151 684.962 172.952 684.962 172.75C684.962 172.549 684.915 172.35 684.825 172.169C684.735 171.989 684.604 171.832 684.443 171.711C684.282 171.589 684.095 171.507 683.896 171.471C683.698 171.434 683.494 171.444 683.3 171.5C682.955 171.5 682.625 171.637 682.381 171.881C682.137 172.125 682 172.455 682 172.8C682 173.145 682.137 173.476 682.381 173.719C682.625 173.963 682.955 174.1 683.3 174.1V174Z" fill="#202124"/>
<path d="M731.4 179.4L735.5 178.1M728.8 184.3L726.9 180.4M685.4 185.5C685.3 181.2 684.6 176.9 683.3 172.8M684.8 177.4L687.1 174.7M685 180.7L681.6 178.2" stroke="#202124" stroke-miterlimit="10"/>
<path d="M788.3 149.7L785.7 141.4L783.2 151.9L780.7 143.4L778.7 152.2L770.7 152.6L767 137.8L764.2 153L762.2 143L760.6 153L755.3 152L752.8 140.3L751.2 147L750.2 138.1V137.9C750.15 137.842 750.085 137.799 750.011 137.777C749.938 137.754 749.86 137.754 749.786 137.775C749.712 137.796 749.646 137.838 749.595 137.895C749.545 137.953 749.512 138.024 749.5 138.1L747.3 147.8L746.3 139.5L743 152L736.6 150.1L734.7 134.1L732.5 150.1V158.1L781.8 156.6L789.2 152.9L788.3 149.6V149.7ZM695.7 146.9L694.1 136.3L691.5 147.6L683.1 146.4L680.9 136.8L680.8 136.6C680.729 136.543 680.641 136.512 680.55 136.512C680.459 136.512 680.371 136.543 680.3 136.6L680.2 136.8L678 147.1L672.4 146L671.6 130.5L669.6 147.6L668.6 136.8C668.6 136.72 668.569 136.644 668.512 136.588C668.456 136.532 668.38 136.5 668.3 136.5C668.221 136.5 668.144 136.532 668.088 136.588C668.032 136.644 668 136.72 668 136.8L666.7 148.5L661.7 147.9L659.7 137.9L658.8 149.4H651.5L650.3 140.6L648.8 150.3L647.3 144.7C647.3 144.567 647.248 144.44 647.154 144.346C647.06 144.253 646.933 144.201 646.8 144.201C646.668 144.201 646.54 144.253 646.446 144.346C646.353 144.44 646.3 144.567 646.3 144.7L645 150.5L641.7 137.5L639.5 150.5H633.7L632.9 139.5L631.7 151L629.7 149.8L629.3 142.7C629.286 142.653 629.26 142.61 629.226 142.575C629.191 142.54 629.147 142.514 629.1 142.5C629.035 142.497 628.971 142.515 628.917 142.551C628.864 142.587 628.822 142.639 628.8 142.7L627.1 151L625.5 136.8L622.5 150.1L618 148.8L617 138.7L615 146L613.4 135.7L611.7 145.3L610.1 138.4L607.2 149.4L602.9 149L601.7 142.6C601.677 142.459 601.603 142.33 601.493 142.239C601.383 142.147 601.243 142.098 601.1 142.1C600.97 142.093 600.842 142.129 600.734 142.201C600.626 142.273 600.544 142.378 600.5 142.5L598.5 149.3L585.5 148.9L584.2 142.2L582 149.3L581 143.8L579.6 149H575.6L574.6 144.4L573.9 149.6H571.2L570.3 145.2L569.2 150.2L651.5 156.4L697 155L695.8 146.9H695.7Z" fill="#202124"/>
<path d="M593.4 142V150M595.5 124.5V132.5M592.9 126V134M598 124.5V132.5M603.4 125V128.7M605.6 123.6V127.3M608.5 124.2V127.9M585.2 126.4V134.3M583 127.5V135.4M575.4 125.6V133.6M573.3 127.5V135.4M570.6 127V135M561.2 126.8V134.8M558 128.5V136.4M555 129.3V137.3M551.8 129.3V137.3M548.6 127.5V135.4M546.5 129.3V137.3M544 128.5V136.4M534 129V137M532.3 130.8V138.8M530.3 129.6V137.6M527.8 131V139M525.3 132V140M522 130.6V138.6M519.3 129.6V137.6M514.5 131.4V139.4M512.4 130.8V138.8M509.8 132.4V140.4M506.9 131.4V139.4M502 133.3V141.3M499 133.8V141.7M497 133V141M494.7 134.6V142.5M490.4 134V142M426.6 143.2V151.2M424.1 144.8V152.7M418.8 145.7V153.7M415.7 145.3V153.3M413.4 147.2V155.2M410.5 146.8V154.8M408.1 148.1V156.1" stroke="#202124" stroke-miterlimit="10"/>
<path d="M538.5 127.9L537 134.3L540.3 134.6L538.5 127.9ZM564.5 126L563 132H566.4L564.5 126ZM588.6 122.8L587.3 129.6L590.5 129.3L588.6 122.8ZM483.8 139L483.1 134.3L482.4 140.3L483.8 139ZM478.4 140L476.7 135L475.4 141.7L473.4 141.9L472.4 137.5L471.3 142.8H468.9L468.1 136L467.4 143.3H465.4L463.9 139.3L463.3 143.3L460.3 143.7L459.1 140L458.6 144L447.9 145L446.9 140.4L445.9 145.4H442.9L441.8 140.4L440.6 146.1L438.3 145.5L437.3 141.2L436.5 146.1H432.7L431.3 141.9L430 146.7L428.4 143.5L427.9 146.7L428.6 148.7H459L479.7 144.7L478.3 140H478.4Z" fill="#202124"/>
<path d="M76.2996 167.4V25.7998M76.2996 71.4998L62.7996 57.9998M76.2996 101.2L95.9996 81.4998M76.2996 136L53.5996 113.2M123.1 71.4998V154.3M123.1 108.7L131.9 99.8998M123.1 136L114.3 127.2M165.3 72.3998V165.6M175.2 91.1998L165.2 101.2M165.3 142.8L144.6 122M805.5 119.5V182M814.9 134.8L806.2 143.4M792.4 156.7L805.5 169.8M842.5 83.5998V163.3M850.8 102.6L843 110.4M831.2 134.8L842.5 146M881.5 40.4998V146M887.4 75.5998L881.5 81.4998M871.1 115.8L881.5 126.2M908.2 88.9998V153.9M918.4 104.1L908.2 114.3M898 129.1L908.2 139.3M950.5 53.8998V136.1M960.5 79.2998L950.7 89.0998M938.9 98.5998L950.5 110.2" stroke="#5F6368" stroke-linecap="round" stroke-linejoin="round"/>
<path d="M268.3 156.8C268.536 156.86 268.783 156.866 269.022 156.817C269.261 156.766 269.485 156.662 269.677 156.513C269.87 156.363 270.026 156.172 270.134 155.954C270.295 155.623 270.338 155.247 270.255 154.889C270.172 154.531 269.968 154.212 269.678 153.986C269.486 153.836 269.261 153.733 269.022 153.683C268.784 153.634 268.537 153.639 268.3 153.7C267.994 153.814 267.73 154.018 267.543 154.286C267.357 154.554 267.258 154.873 267.258 155.2C267.258 155.527 267.357 155.845 267.543 156.114C267.73 156.382 267.994 156.586 268.3 156.7V156.8Z" fill="#202124"/>
<path d="M254.1 174.1C254.1 174.1 258.5 161.3 268.3 155.2M261.6 161L260.6 156.4M258 166.2H262.4M295.5 187.3C295.5 187.3 296.3 176.6 301.5 170.4" stroke="#202124" stroke-miterlimit="10"/>
<path d="M269.2 171.3C269.436 171.36 269.683 171.366 269.922 171.317C270.16 171.266 270.384 171.162 270.577 171.013C270.769 170.863 270.925 170.672 271.034 170.454C271.195 170.123 271.237 169.747 271.154 169.389C271.071 169.031 270.868 168.712 270.578 168.486C270.385 168.336 270.161 168.233 269.922 168.183C269.683 168.134 269.436 168.139 269.2 168.2C268.894 168.314 268.63 168.518 268.443 168.786C268.257 169.054 268.157 169.373 268.157 169.7C268.157 170.027 268.257 170.345 268.443 170.614C268.63 170.882 268.894 171.086 269.2 171.2V171.3ZM301.5 172.1C301.736 172.16 301.983 172.166 302.222 172.117C302.46 172.066 302.684 171.962 302.877 171.813C303.069 171.663 303.226 171.472 303.334 171.254C303.495 170.923 303.537 170.547 303.454 170.189C303.371 169.831 303.168 169.512 302.878 169.286C302.69 169.14 302.472 169.038 302.24 168.987C302.008 168.936 301.767 168.938 301.536 168.991C301.304 169.045 301.087 169.15 300.901 169.297C300.715 169.445 300.564 169.633 300.46 169.846C300.355 170.06 300.3 170.294 300.297 170.532C300.294 170.769 300.344 171.005 300.444 171.22C300.544 171.436 300.69 171.627 300.873 171.779C301.055 171.931 301.269 172.041 301.5 172.1Z" fill="#202124"/>
<path d="M269.5 171C269.5 171 272.2 179.6 271.4 184.7M298.3 175.8L296 170.9M296.8 180.4L300.6 179.4M267.6 175.4L270.8 176.1M270.5 173.6L272.5 171.6" stroke="#202124" stroke-miterlimit="10"/>
<path d="M473.3 25.5001L471.9 25.8C471.711 25.8677 471.546 25.9906 471.428 26.1528C471.309 26.3151 471.242 26.5092 471.235 26.71C471.23 26.8431 471.252 26.9758 471.3 27.1001L475.6 35.6L483.6 33.6L474.6 25.8C474.425 25.6461 474.215 25.538 473.988 25.4856C473.761 25.4333 473.525 25.4382 473.3 25.5001Z" fill="#80868B"/>
<path d="M475.6 35.5998L471.3 27.0998C471.245 26.9736 471.217 26.8375 471.217 26.6998C471.217 26.5621 471.245 26.426 471.3 26.2998C471.361 26.1803 471.446 26.0745 471.549 25.9885C471.652 25.9026 471.772 25.8384 471.9 25.7998H472.2L476.9 35.2998L475.6 35.5998Z" fill="#5F6368"/>
<path d="M463.3 38.2L491.8 31.2C492.095 31.1278 492.402 31.1145 492.703 31.1608C493.003 31.2072 493.292 31.3123 493.552 31.4701C493.812 31.628 494.038 31.8355 494.218 32.0809C494.398 32.3262 494.528 32.6046 494.6 32.9C494.672 33.1955 494.685 33.5023 494.639 33.8029C494.593 34.1036 494.488 34.3921 494.33 34.6521C494.172 34.9121 493.964 35.1385 493.719 35.3183C493.474 35.4981 493.195 35.6278 492.9 35.7L464.5 42.7L463.3 38.2Z" fill="#5F6368"/>
<path d="M463.8 34.4002C463.443 34.4943 463.137 34.7258 462.95 35.0443C462.763 35.3627 462.709 35.7423 462.8 36.1002L463.8 40.5002L468.7 39.3002L465.2 34.9002C465.046 34.6837 464.829 34.5196 464.579 34.4302C464.329 34.3408 464.057 34.3303 463.8 34.4002Z" fill="#5F6368"/>
<path d="M464.5 42.9L493 35.8C493.52 35.6844 493.984 35.3918 494.312 34.9724C494.64 34.5529 494.813 34.0325 494.8 33.5L464 41.1L464.4 42.9H464.5Z" fill="#80868B"/>
<path d="M478.8 50L477.4 50.3C477.15 50.33 476.897 50.2642 476.693 50.1158C476.489 49.9675 476.349 49.7475 476.3 49.5L476 40L484.1 38L479.7 49.2C479.619 49.392 479.496 49.5635 479.341 49.7019C479.185 49.8404 479 49.9422 478.8 50Z" fill="#80868B"/>
<path d="M476 40.0002L476.3 49.5002C476.304 49.7642 476.412 50.0152 476.6 50.2002C476.719 50.2715 476.852 50.3172 476.989 50.3344C477.127 50.3516 477.267 50.34 477.4 50.3002H477.7L477.4 39.7002L476 40.0002Z" fill="#5F6368"/>
<path d="M706.8 169.5H755.2" stroke="#202124" stroke-linecap="round" stroke-linejoin="round"/>
<path d="M731.4 142C730.945 140.715 730.876 139.324 731.2 138" stroke="#F4AFB6" stroke-width="2" stroke-miterlimit="10" stroke-linecap="round"/>
<path d="M732.2 140.8C732.4 142.2 733.2 143.5 734.2 144.4C734.724 144.831 735.334 145.144 735.99 145.316C736.646 145.489 737.332 145.517 738 145.4L738.5 148.6C737.389 148.775 736.254 148.714 735.169 148.421C734.083 148.128 733.072 147.61 732.2 146.9C730.381 145.402 729.23 143.245 729 140.9" fill="#56A55C"/>
<path d="M740.8 143.8H737.5V146.4H740.8V143.8Z" fill="#F4AFB6"/>
<path d="M739.8 145C740.492 144.999 741.168 144.793 741.743 144.408C742.318 144.024 742.766 143.477 743.031 142.838C743.295 142.199 743.365 141.496 743.23 140.817C743.096 140.138 742.763 139.515 742.275 139.025C741.785 138.536 741.161 138.204 740.483 138.069C739.804 137.935 739.101 138.004 738.462 138.269C737.822 138.534 737.276 138.982 736.891 139.557C736.507 140.132 736.301 140.808 736.3 141.5C736.301 142.428 736.67 143.318 737.326 143.974C737.982 144.63 738.872 144.999 739.8 145Z" fill="#EE675C"/>
<path d="M739 145.5H740.6C741.287 145.609 741.924 145.927 742.424 146.41C742.925 146.892 743.266 147.517 743.4 148.2L743.2 156.4H732.8L733.8 145.4" fill="#56A55C"/>
<path d="M734 156.4L731 170H735.2L738.2 160.6L738.8 170H743L743.3 156.4H734Z" fill="#343659"/>
<path d="M713.8 108.7H709V115.9H713.8V108.7ZM723.2 123.1C727.2 126.5 730.3 130.5 732.7 135.1C732.7 135.1 733.7 137.1 732.4 138.4C732.4 138.4 731 139.7 730 138.4C729 137.1 730.2 135.4 730.2 135.4C730.2 135.4 727.5 131.6 721.2 126.5L723.2 123.1Z" fill="#F4AFB6"/>
<path d="M717.1 110.8L722.1 112.3C722.726 112.592 723.406 112.75 724.097 112.766C724.788 112.781 725.474 112.653 726.113 112.39C726.752 112.127 727.33 111.735 727.809 111.237C728.289 110.74 728.66 110.148 728.9 109.5C741.2 113.3 742 104.2 742 104.2C739.5 108.2 735.2 105.9 729.8 104.2C724.5 102.5 724 106 724 106C722.1 105.5 720.4 104.6 719 103.4C717.4 102 715.8 100.4 713.7 99.5999C712.639 99.2293 711.495 99.164 710.399 99.4115C709.303 99.659 708.298 100.209 707.5 101C706.876 101.658 706.415 102.453 706.154 103.321C705.894 104.19 705.841 105.107 706 106C706.135 106.993 706.47 107.949 706.986 108.808C707.502 109.668 708.187 110.413 709 111C712.6 113.6 717.1 110.8 717.1 110.8Z" fill="#EE675C"/>
<path d="M718.6 144.5C720.5 153.5 723.8 162.1 728.5 170H720.401C716.528 165.261 713.516 159.879 711.5 154.1C711.5 154.1 713.2 167.6 714 170H706.701C701.701 158.6 700.7 145.8 703.6 133.7H717.901V134.8C717.782 138.054 718.05 141.31 718.701 144.5H718.6Z" fill="#F9AB00"/>
<path d="M717.9 136.5H698.5L702.5 118.1L696.6 112.3L701 107.9L707.2 113.1C707.2 113.1 717.4 115.2 723.2 123.1C722.011 125.601 720.385 127.87 718.4 129.8L717.9 136.5Z" fill="#4285F4"/>
<path d="M718.5 113.3H707.3C706.3 113.3 705.3 114.1 705.3 115.1V131.1C705.3 132.1 706.1 132.9 707.1 132.9L718.3 133C719.3 133 720.3 132.2 720.3 131.2V115.2C720.3 114.2 719.5 113.3 718.5 113.3Z" fill="#4B4D75"/>
<path d="M710.8 133H707C706.742 133 706.487 132.948 706.249 132.846C706.012 132.745 705.798 132.596 705.62 132.409C705.442 132.222 705.305 132 705.215 131.758C705.126 131.516 705.087 131.258 705.1 131L705.3 115.1C705.3 114.85 705.349 114.603 705.445 114.373C705.54 114.142 705.68 113.933 705.856 113.756C706.033 113.58 706.243 113.44 706.473 113.345C706.704 113.249 706.951 113.2 707.2 113.2H708.8C709.187 113.193 709.567 113.304 709.888 113.518C710.21 113.733 710.458 114.04 710.6 114.4V133H710.8Z" fill="#343757"/>
<path d="M701 107.9L682.3 90.6001C682.19 90.5017 682.048 90.4473 681.9 90.4473C681.753 90.4473 681.61 90.5017 681.5 90.6001C681.386 90.6968 681.313 90.8325 681.295 90.9806C681.276 91.1287 681.314 91.2783 681.4 91.4001L683.4 93.8001V94.4001C683.4 95.1001 683.6 95.8001 684.1 96.4001L698 111L701.1 107.9H701Z" fill="#F4AFB6"/>
<path d="M712.7 170C710.378 161.166 709.7 151.979 710.7 142.9L711.9 143.1C710.764 152.11 711.444 161.257 713.9 170H712.7Z" fill="#F29900"/>
<path d="M709.9 137.6C709.453 137.6 709.011 137.513 708.598 137.342C708.186 137.171 707.811 136.921 707.495 136.605C707.179 136.289 706.929 135.914 706.758 135.501C706.587 135.089 706.5 134.646 706.5 134.2C706.5 133.753 706.587 133.311 706.758 132.898C706.929 132.486 707.179 132.111 707.495 131.795C707.811 131.479 708.186 131.229 708.598 131.058C709.011 130.887 709.453 130.799 709.9 130.8H720.5C720.947 130.799 721.389 130.887 721.802 131.058C722.214 131.229 722.589 131.479 722.905 131.795C723.221 132.111 723.471 132.486 723.642 132.898C723.813 133.311 723.9 133.753 723.9 134.2C723.9 134.646 723.813 135.089 723.642 135.501C723.471 135.914 723.221 136.289 722.905 136.605C722.589 136.921 722.214 137.171 721.802 137.342C721.389 137.513 720.947 137.6 720.5 137.6H709.9Z" fill="#EA4335"/>
<path d="M709.9 137.6C710.347 137.6 710.789 137.513 711.202 137.342C711.614 137.171 711.989 136.921 712.305 136.605C712.621 136.289 712.871 135.914 713.042 135.501C713.213 135.089 713.3 134.646 713.3 134.2C713.3 133.753 713.213 133.311 713.042 132.898C712.871 132.486 712.621 132.111 712.305 131.795C711.989 131.479 711.614 131.229 711.202 131.058C710.789 130.887 710.347 130.799 709.9 130.8C709.453 130.799 709.011 130.887 708.598 131.058C708.186 131.229 707.811 131.479 707.495 131.795C707.179 132.111 706.929 132.486 706.758 132.898C706.587 133.311 706.5 133.753 706.5 134.2C706.5 134.646 706.587 135.089 706.758 135.501C706.929 135.914 707.179 136.289 707.495 136.605C707.811 136.921 708.186 137.171 708.598 137.342C709.011 137.513 709.453 137.6 709.9 137.6Z" fill="#C5221F"/>
<path d="M715 113.3H720C720.258 113.286 720.516 113.325 720.758 113.415C721 113.504 721.221 113.642 721.409 113.82C721.596 113.998 721.745 114.212 721.846 114.449C721.948 114.686 722 114.942 722 115.2L721.9 120.7C721.874 121.186 721.663 121.644 721.309 121.979C720.956 122.314 720.487 122.501 720 122.5H715" fill="#4B4D75"/>
<path d="M720.3 123.1H713.3C712.898 123.113 712.497 123.045 712.122 122.9C711.746 122.755 711.404 122.537 711.114 122.257C710.825 121.977 710.595 121.642 710.438 121.271C710.281 120.901 710.2 120.502 710.2 120.1V115.9" stroke="#343757" stroke-width="1.2" stroke-miterlimit="10"/>
<path d="M709.9 136C710.364 136 710.809 135.816 711.137 135.487C711.3 135.325 711.429 135.132 711.517 134.92C711.606 134.707 711.651 134.48 711.651 134.25C711.651 134.02 711.606 133.793 711.517 133.58C711.429 133.368 711.3 133.175 711.137 133.013C710.975 132.85 710.782 132.721 710.57 132.633C710.358 132.545 710.13 132.5 709.9 132.5C709.449 132.5 709.017 132.679 708.698 132.998C708.379 133.317 708.2 133.749 708.2 134.2C708.2 134.651 708.379 135.083 708.698 135.402C709.017 135.721 709.449 135.9 709.9 135.9V136Z" fill="#DA5040"/>
<path d="M717 122.5H714.6V126.1H717V122.5Z" fill="#343757"/>
<path d="M741.8 154.5H737.8C737.652 154.512 737.504 154.491 737.366 154.439C737.228 154.388 737.103 154.306 737 154.2C736.875 154.107 736.774 153.986 736.705 153.848C736.635 153.709 736.599 153.555 736.6 153.4V148.2C736.6 147.378 736.927 146.59 737.508 146.008C738.089 145.427 738.878 145.1 739.7 145.1H741.6L742.9 153.4C742.916 153.548 742.899 153.699 742.849 153.839C742.799 153.98 742.718 154.108 742.613 154.213C742.507 154.319 742.379 154.399 742.239 154.449C742.098 154.499 741.948 154.516 741.8 154.5Z" fill="#1967D2"/>
<path d="M741.5 145C741.915 145 742.327 145.084 742.709 145.245C743.092 145.407 743.438 145.645 743.728 145.943C744.017 146.241 744.244 146.595 744.394 146.983C744.543 147.37 744.614 147.784 744.6 148.2V153.4C744.614 153.54 744.599 153.681 744.555 153.814C744.511 153.947 744.44 154.07 744.345 154.173C744.251 154.277 744.136 154.36 744.007 154.416C743.879 154.472 743.74 154.501 743.6 154.5H739.5C739.353 154.512 739.204 154.491 739.066 154.439C738.928 154.387 738.803 154.306 738.7 154.2C738.594 154.097 738.512 153.972 738.46 153.834C738.409 153.695 738.388 153.547 738.4 153.4V148.2C738.4 147.378 738.727 146.59 739.308 146.008C739.889 145.427 740.678 145.1 741.5 145.1V145Z" fill="#4285F4"/>
<path d="M739.5 150V148.2C739.5 147.67 739.711 147.161 740.086 146.786C740.461 146.411 740.97 146.2 741.5 146.2C742.03 146.2 742.539 146.411 742.914 146.786C743.289 147.161 743.5 147.67 743.5 148.2V149.9" stroke="#265BB6" stroke-miterlimit="10"/>
<path d="M742.2 146.3C742.677 146.3 743.135 146.11 743.473 145.773C743.81 145.435 743.999 144.977 743.999 144.5C743.999 144.023 743.81 143.565 743.473 143.227C743.135 142.89 742.677 142.701 742.2 142.701C741.723 142.701 741.265 142.89 740.927 143.227C740.59 143.565 740.401 144.023 740.401 144.5C740.401 144.977 740.59 145.435 740.927 145.773C741.265 146.11 741.723 146.3 742.2 146.3Z" fill="#EE675C"/>
<path d="M763.8 169.3C764.145 169.3 764.475 169.163 764.719 168.92C764.962 168.676 765.099 168.346 765.099 168.001C765.099 167.657 764.962 167.326 764.719 167.083C764.475 166.839 764.145 166.702 763.8 166.702C763.455 166.702 763.125 166.839 762.881 167.083C762.638 167.326 762.501 167.657 762.501 168.001C762.501 168.346 762.638 168.676 762.881 168.92C763.125 169.163 763.455 169.3 763.8 169.3Z" fill="#202124"/>
<path d="M755.2 184C755.2 184 755.2 175.5 763.8 168M758.3 174.3L762.2 173.1M757 176.9L755.1 173.9" stroke="#202124" stroke-miterlimit="10"/>
</g>
</g>
<defs>
<clipPath id="clip0_191_82">
<rect width="1024" height="245" fill="white"/>
</clipPath>
</defs>
</svg>
