<svg width="1024" height="245" viewBox="0 0 1024 245" fill="none" xmlns="http://www.w3.org/2000/svg">
<g clip-path="url(#clip0_191_7)">
<mask id="mask0_191_7" style="mask-type:luminance" maskUnits="userSpaceOnUse" x="0" y="0" width="1024" height="245">
<path d="M0 0H1024V245H0V0Z" fill="white"/>
</mask>
<g mask="url(#mask0_191_7)">
<path d="M1023.97 0H32.2002V203.21H1023.97V0Z" fill="#E8F0FE"/>
<path d="M184.63 147.35C198.664 147.35 210.04 135.974 210.04 121.94C210.04 107.906 198.664 96.5303 184.63 96.5303C170.596 96.5303 159.22 107.906 159.22 121.94C159.22 135.974 170.596 147.35 184.63 147.35Z" fill="white"/>
<path d="M252.4 163.73C283.947 163.73 309.52 138.157 309.52 106.61C309.52 75.0642 283.947 49.4902 252.4 49.4902C220.854 49.4902 195.28 75.0642 195.28 106.61C195.28 138.157 220.854 163.73 252.4 163.73Z" fill="white"/>
<path d="M321.22 134.24C335.712 134.24 347.46 122.492 347.46 108C347.46 93.5083 335.712 81.7603 321.22 81.7603C306.728 81.7603 294.98 93.5083 294.98 108C294.98 122.492 306.728 134.24 321.22 134.24Z" fill="white"/>
<path d="M357.18 127.2C367.784 127.2 376.38 118.604 376.38 108C376.38 97.3963 367.784 88.8003 357.18 88.8003C346.576 88.8003 337.98 97.3963 337.98 108C337.98 118.604 346.576 127.2 357.18 127.2Z" fill="white"/>
<path d="M395.48 123.18C409.497 123.18 420.86 111.817 420.86 97.7999C420.86 83.7829 409.497 72.4199 395.48 72.4199C381.463 72.4199 370.1 83.7829 370.1 97.7999C370.1 111.817 381.463 123.18 395.48 123.18Z" fill="white"/>
<path d="M423.12 103.93C429.764 103.93 435.15 98.5441 435.15 91.9001C435.15 85.2561 429.764 79.8701 423.12 79.8701C416.476 79.8701 411.09 85.2561 411.09 91.9001C411.09 98.5441 416.476 103.93 423.12 103.93Z" fill="white"/>
<path d="M442.44 118.38C451.409 118.38 458.68 111.109 458.68 102.14C458.68 93.1704 451.409 85.9004 442.44 85.9004C433.471 85.9004 426.2 93.1704 426.2 102.14C426.2 111.109 433.471 118.38 442.44 118.38Z" fill="white"/>
<path d="M462.76 120.77C469.454 120.77 474.88 115.344 474.88 108.65C474.88 101.956 469.454 96.5303 462.76 96.5303C456.066 96.5303 450.64 101.956 450.64 108.65C450.64 115.344 456.066 120.77 462.76 120.77Z" fill="white"/>
<path d="M493.29 132.43C505.866 132.43 516.06 122.236 516.06 109.66C516.06 97.0852 505.866 86.8902 493.29 86.8902C480.715 86.8902 470.52 97.0852 470.52 109.66C470.52 122.236 480.715 132.43 493.29 132.43ZM561.5 112.35C575.561 112.35 586.96 100.951 586.96 86.8902C586.96 72.8292 575.561 61.4302 561.5 61.4302C547.439 61.4302 536.04 72.8292 536.04 86.8902C536.04 100.951 547.439 112.35 561.5 112.35Z" fill="white"/>
<path d="M590.5 90.4302C606.516 90.4302 619.5 77.4462 619.5 61.4302C619.5 45.4142 606.516 32.4302 590.5 32.4302C574.484 32.4302 561.5 45.4142 561.5 61.4302C561.5 77.4462 574.484 90.4302 590.5 90.4302Z" fill="white"/>
<path d="M621.42 66.0303C622.695 66.0303 623.958 65.7792 625.136 65.2912C626.314 64.8032 627.384 64.088 628.286 63.1864C629.188 62.2847 629.903 61.2143 630.391 60.0362C630.879 58.8581 631.13 57.5955 631.13 56.3204C631.13 55.0452 630.879 53.7826 630.391 52.6045C629.903 51.4264 629.188 50.356 628.286 49.4543C627.384 48.5527 626.314 47.8375 625.136 47.3495C623.958 46.8615 622.695 46.6104 621.42 46.6104C618.845 46.6104 616.375 47.6334 614.554 49.4543C612.733 51.2753 611.71 53.7451 611.71 56.3204C611.71 58.8956 612.733 61.3654 614.554 63.1864C616.375 65.0073 618.845 66.0303 621.42 66.0303Z" fill="white"/>
<path d="M640.83 67.3302C648.247 67.3302 654.26 61.3172 654.26 53.9002C654.26 46.4832 648.247 40.4702 640.83 40.4702C633.413 40.4702 627.4 46.4832 627.4 53.9002C627.4 61.3172 633.413 67.3302 640.83 67.3302ZM681.03 80.4102C690.192 80.4102 697.62 72.9822 697.62 63.8202C697.62 54.6582 690.192 47.2302 681.03 47.2302C671.868 47.2302 664.44 54.6582 664.44 63.8202C664.44 72.9822 671.868 80.4102 681.03 80.4102Z" fill="white"/>
<path d="M710.98 85.8201C720.143 85.8201 727.57 78.3921 727.57 69.2301C727.57 60.0681 720.143 52.6401 710.98 52.6401C701.818 52.6401 694.39 60.0681 694.39 69.2301C694.39 78.3921 701.818 85.8201 710.98 85.8201Z" fill="white"/>
<path d="M749.24 101.48C765.82 101.48 779.26 88.0399 779.26 71.4599C779.26 54.8799 765.82 41.4399 749.24 41.4399C732.66 41.4399 719.22 54.8799 719.22 71.4599C719.22 88.0399 732.66 101.48 749.24 101.48Z" fill="white"/>
<path d="M775.1 98.5803C780.418 98.5803 784.73 94.2693 784.73 88.9503C784.73 83.6313 780.418 79.3203 775.1 79.3203C772.546 79.3203 770.096 80.3349 768.29 82.1409C766.484 83.9469 765.47 86.3963 765.47 88.9503C765.47 91.5043 766.484 93.9538 768.29 95.7598C770.096 97.5657 772.546 98.5803 775.1 98.5803Z" fill="white"/>
<path d="M788.88 111.82C795.375 111.82 800.64 106.555 800.64 100.06C800.64 93.5653 795.375 88.3003 788.88 88.3003C782.385 88.3003 777.12 93.5653 777.12 100.06C777.12 106.555 782.385 111.82 788.88 111.82Z" fill="white"/>
<path d="M183.26 95.8803C187.533 95.877 191.755 96.8215 195.619 98.6458C199.484 100.47 202.896 103.129 205.61 106.43M321.13 81.0903C326.544 81.1073 331.827 82.7583 336.288 85.8272C340.748 88.896 344.178 93.2398 346.13 98.2903M303.83 80.5203C305.649 84.152 307.077 87.9668 308.09 91.9003M414.18 79.8603C415.883 81.6889 417.33 83.7411 418.48 85.9603M369.69 96.0003C369.795 93.6173 370.236 91.2603 371 89.0003M434.09 85.8003C435.091 87.6883 435.613 89.7933 435.61 91.9303M457.91 95.5403C458.486 97.0429 458.853 98.6177 459 100.22M471.3 102C472.044 99.9041 473.052 97.9114 474.3 96.0703M560.51 60.9103C564.023 60.8726 567.518 61.4235 570.85 62.5403M613.69 49.6603C614.654 48.5371 615.844 47.6304 617.183 46.9996C618.523 46.3689 619.98 46.0283 621.46 46.0003M627 53.8603C626.968 51.6633 627.456 49.4899 628.424 47.5174C629.392 45.5449 630.812 43.8292 632.57 42.5103M692.63 51.2003C694.355 52.8031 695.731 54.7452 696.671 56.9049C697.61 59.0645 698.093 61.3951 698.09 63.7503M718.62 71.4603C718.705 63.7639 721.624 56.3691 726.82 50.6903M779.75 71.4603C779.754 75.6245 778.907 79.7457 777.26 83.5703M785.21 88.7403C785.233 90.4705 784.853 92.1823 784.1 93.7403" stroke="#E8F0FE" stroke-linecap="round" stroke-linejoin="round"/>
<path d="M240.78 97.8L312.71 117.48L320.54 109.66L317.19 97.8L345.51 110.33L288.47 130.15L337.31 162.65H361.9L358.77 150.28L346.2 143.87L340.89 135.97L381.13 153.11L379.05 145.21L374.33 144.17L368.02 136.12L405.28 156.54L429.58 162.65L325.67 194.32L313.14 161.84L257.4 147.35L244.1 150.85L267.37 114.03L258.93 118.38L254.59 108H249.47L240.78 97.8ZM647.5 47.23L736.38 81.03L873.96 115.98L861.38 137.78L807.38 120.77L724.5 110.78L731.08 86.89L671.67 77.52L676.37 63.82L659.47 62.39L647.5 47.23Z" fill="#AECBFA"/>
<path d="M185.81 127.21L240.78 97.8002L249.47 108H254.59L258.93 118.38L267.37 114.03L244.1 150.85L257.4 147.35L313.14 161.84L325.67 194.32L243.85 213.75L185.81 127.21ZM317.19 97.8002L293 112.09L312.71 117.48L320.54 109.66L317.19 97.8002ZM288.47 130.15L345.51 110.33L409.54 88.2002L443.86 113.31L429.58 117.02L504.47 138.74L397.81 152.45L368.02 136.12L374.33 144.17L379.05 145.21L381.13 153.11L340.89 135.97L346.2 143.87L358.77 150.28L361.9 162.65H337.31L288.47 130.15Z" fill="#E8F0FE"/>
<path d="M409.54 88.2002L443.86 113.31L429.58 117.02L514.64 142.77L471.21 120.77L484.96 115.03L431.73 96.5302L409.54 88.2002Z" fill="#AECBFA"/>
<path d="M471.21 120.77L647.5 47.23L659.47 62.39L676.37 63.82L671.67 77.52L731.08 86.89L724.5 110.78L807.38 120.77L861.38 137.78L854.1 167.36L750.56 153.74H553.35L626.88 122.05L514.64 142.77L471.21 120.77Z" fill="#E8F0FE"/>
<path d="M979.496 0.00716406L964 60.7602L949 32.4302L928.4 107.29L907.79 71.4602L895.21 100.06L881 7.60016L863.87 128.6L842.2 57.4702L824 132.47L804.45 100.19L787.45 149.62C770.45 146.62 753.45 150.79 733.18 150.79C712.64 150.79 691.63 143.85 679.11 144.91C666.59 145.97 649.36 151.91 621.32 149.04C593.28 146.17 557.32 150.79 557.32 150.79L624.22 123.27C573.31 130 524 132.51 524 132.51C499 132.51 470.43 141.68 470.43 141.68C416.86 144.51 397.73 152.5 397.73 152.5L405.2 156.59L415.7 159.23L392.12 165.13L368.2 168.23C358.11 169.93 341.93 177.61 331.01 183.34C329.78 181.01 328.62 180.68 328.62 180.68C327.925 181.562 327.433 182.586 327.18 183.68C326.723 181.616 325.845 179.669 324.6 177.96C322.82 179.629 321.571 181.786 321.01 184.16C320.878 182.704 320.383 181.305 319.57 180.09C317.817 181.299 316.361 182.888 315.31 184.74C315.111 182.329 314.103 180.057 312.45 178.29C309.62 180.29 309.61 182.65 309.63 183.08C309.598 181.112 308.966 179.2 307.82 177.6C303.82 180.17 302.17 187.7 302.17 187.7C302.274 186.018 301.854 184.345 300.97 182.91C296.97 183.77 295.9 186.13 295.9 186.13C293.75 178.76 289.26 176.95 289.26 176.95C287.34 183.73 289.84 188.15 289.84 188.15C287.455 188.101 285.094 188.633 282.96 189.7C284.148 187.939 284.669 185.811 284.43 183.7C282.733 184.077 281.246 185.094 280.28 186.54C280.885 184.426 280.754 182.17 279.91 180.14C278.155 180.848 276.651 182.063 275.59 183.63C276.59 179.42 274.98 173.98 274.98 173.98C271.58 176.27 270.49 181.78 270.49 181.78C270.293 181.11 269.869 180.53 269.29 180.14C268.773 180.625 268.376 181.223 268.131 181.888C267.887 182.553 267.801 183.266 267.88 183.97C256.21 174.29 249.31 171.58 246.22 170.82C247.453 169.074 248.236 167.051 248.5 164.93C246.548 164.816 244.623 165.433 243.1 166.66C244.216 163.764 244.216 160.556 243.1 157.66C240.36 158.21 237.7 163.06 237.7 163.06C237.967 159.434 236.932 155.831 234.78 152.9C227.72 157.96 224.78 163.74 223.67 167.05L165.25 60.7602L138 113.81L122.57 39.6702L112.93 106.43L79.65 0.000164063H74.35L65.67 27.7302L55.128 -0.00683594H0V245H1024V0.00716406H979.496ZM776.06 182.87C750.89 176.75 705.25 184.87 705.25 184.87C677.43 182.42 656.25 189.44 656.25 189.44C649.023 183.891 640.335 180.569 631.25 179.88C691.65 156.81 761.45 159.17 783.7 160.67L776.06 182.87Z" fill="white"/>
<path d="M340.89 135.97L325.67 150.22L342.51 138.38L340.89 135.97ZM368.02 136.12L360.02 144.12L361.65 144.81L370.32 139.05L368.02 136.12ZM429.58 117.02L409.54 136.12L429.58 126.12L427.77 120.77L432.73 117.98L429.58 117.02ZM333.18 184L334.87 174.43L336.85 184L338.75 168.53L341.32 180.48L343.52 168.23L346.23 178.8M354.01 173.8L354.81 168.67L355.91 173.8H354.01ZM361.27 170.63L362.29 165.13L364.71 171.33L365.89 165.55L368.24 170.63M384.27 166.49L384.62 163.8C384.64 163.714 384.688 163.637 384.757 163.582C384.826 163.528 384.912 163.499 385 163.499C385.088 163.499 385.173 163.528 385.243 163.582C385.312 163.637 385.36 163.714 385.38 163.8L385.91 166.51L389 166L389.54 162.28L390.36 166.49L394.41 165.49L395.07 159.57L395.67 165.13L396.49 164.69L396.7 161.95C396.71 161.906 396.735 161.866 396.77 161.838C396.806 161.81 396.85 161.794 396.895 161.794C396.94 161.794 396.984 161.81 397.02 161.838C397.055 161.866 397.08 161.906 397.09 161.95L397.59 164.95L399.07 164.18L399.28 161.61L400.05 164.18M776.8 184.05C776.8 184.05 776.61 178.53 771.8 171.26C771.8 171.26 769.8 174.17 769.8 179.79C768.342 177.859 766.451 176.297 764.28 175.23C764.28 175.23 762.73 177.07 765.93 184.92L776.8 184.05ZM755.2 184.53C755.298 182.372 755.137 180.21 754.72 178.09C753.779 178.381 752.912 178.87 752.175 179.523C751.439 180.177 750.851 180.981 750.45 181.88C751.272 179.41 751.272 176.74 750.45 174.27C750.45 174.27 745.32 177.66 744.35 182.79C743.712 181.02 742.687 179.414 741.35 178.09C739.569 181.004 738.915 184.468 739.51 187.83C740.58 193.25 755.2 184.53 755.2 184.53ZM725.18 189.6C725.616 187.519 725.714 185.382 725.47 183.27C724.374 183.673 723.378 184.307 722.55 185.13C722.677 182.804 722.39 180.475 721.7 178.25C719.544 178.742 717.668 180.065 716.48 181.93C716.48 181.93 717.05 180.93 715.39 177.28C714.24 178.179 713.325 179.344 712.726 180.675C712.127 182.006 711.86 183.463 711.95 184.92L725.18 189.6ZM707.34 185.13C707.34 185.13 708.15 180.44 706.12 176.68C704.812 177.47 703.813 178.684 703.29 180.12C703.29 180.12 703.45 178.7 702.08 175.75C700.422 177.398 699.426 179.597 699.28 181.93C699.28 181.93 699.49 180.68 695.95 178.6C695.535 179.721 695.469 180.941 695.76 182.1C694.774 181.317 693.538 180.916 692.28 180.97C692.31 183.091 692.852 185.173 693.86 187.04L707.34 185.13Z" fill="white"/>
<path d="M722.67 192.45C722.67 192.45 729.49 186.29 733.31 174.27" stroke="white" stroke-miterlimit="10"/>
<path d="M733.31 175.54C733.647 175.54 733.97 175.406 734.208 175.168C734.447 174.929 734.58 174.606 734.58 174.269C734.58 173.932 734.446 173.609 734.208 173.371C733.969 173.133 733.646 172.999 733.309 172.999C733.142 172.999 732.977 173.032 732.823 173.096C732.669 173.16 732.529 173.254 732.411 173.372C732.173 173.61 732.039 173.933 732.039 174.27C732.039 174.607 732.173 174.93 732.412 175.169C732.65 175.407 732.973 175.54 733.31 175.54ZM683.26 174.05C683.597 174.05 683.92 173.916 684.158 173.678C684.397 173.439 684.53 173.116 684.53 172.779C684.53 172.442 684.396 172.119 684.158 171.881C683.919 171.643 683.596 171.509 683.259 171.509C683.092 171.509 682.927 171.542 682.773 171.606C682.619 171.67 682.479 171.764 682.361 171.882C682.123 172.12 681.989 172.443 681.989 172.78C681.989 173.117 682.123 173.44 682.362 173.679C682.6 173.917 682.923 174.05 683.26 174.05Z" fill="white"/>
<path d="M731.35 179.45L735.5 178.09M728.84 184.35L726.94 180.44M685.41 185.49C685.305 181.173 684.581 176.892 683.26 172.78M684.76 177.43L687.11 174.72M685.04 180.68L681.61 178.24" stroke="white" stroke-miterlimit="10"/>
<path d="M788.25 149.7L785.69 141.39L783.22 151.92L780.67 143.45L778.78 152.25L770.7 152.6L767 137.78L764.19 153L762.19 143L760.59 153L755.3 152.05L752.75 140.35L751.15 147L750.29 138.12C750.283 138.024 750.241 137.934 750.172 137.867C750.104 137.799 750.013 137.759 749.917 137.753C749.821 137.748 749.727 137.777 749.65 137.835C749.574 137.893 749.521 137.976 749.5 138.07L747.34 147.81L746.34 139.46L742.9 152.06L736.53 150.23L734.62 134.11L732.43 150.11V158.17L781.65 156.72L789.12 153.04L788.25 149.7ZM695.66 146.89L694.15 136.26L691.51 147.62L683.1 146.37L680.93 136.81C680.91 136.722 680.86 136.644 680.789 136.587C680.718 136.531 680.631 136.5 680.54 136.499C680.449 136.499 680.361 136.53 680.29 136.586C680.22 136.643 680.171 136.722 680.15 136.81L678 147.1L672.4 146L671.59 130.47L669.69 147.61L668.6 136.82C668.6 136.735 668.566 136.654 668.506 136.594C668.446 136.534 668.365 136.5 668.28 136.5C668.195 136.5 668.114 136.534 668.054 136.594C667.994 136.654 667.96 136.735 667.96 136.82L666.68 148.49L661.68 147.9L659.68 137.9L658.81 149.43H651.54L650.29 140.59L648.78 150.3L647.29 144.7C647.263 144.595 647.202 144.501 647.116 144.434C647.03 144.367 646.924 144.331 646.815 144.331C646.706 144.331 646.6 144.367 646.514 144.434C646.428 144.501 646.367 144.595 646.34 144.7L645 150.52L641.75 137.52L639.49 150.52H633.73L632.92 139.44L631.73 151L629.73 149.81L629.34 142.67C629.328 142.612 629.296 142.559 629.25 142.521C629.203 142.483 629.145 142.462 629.085 142.461C629.025 142.461 628.967 142.482 628.92 142.52C628.874 142.558 628.842 142.611 628.83 142.67L627.09 151L625.52 136.8L622.58 150.06L618 148.77L616.93 138.68L615.06 146L613.43 135.73L611.68 145.25L610.11 138.42L607.23 149.42L602.91 148.98L601.71 142.59C601.687 142.448 601.616 142.318 601.508 142.222C601.4 142.126 601.263 142.071 601.119 142.064C600.975 142.057 600.834 142.1 600.717 142.184C600.601 142.269 600.517 142.391 600.48 142.53L598.48 149.3L585.48 148.86L584.23 142.16L581.97 149.3L581 143.82L579.56 149.02H575.6L574.66 144.45L573.91 149.58H571.22L570.33 145.15L569.2 150.15L651.54 156.41L696.85 155L695.66 146.89Z" fill="white"/>
<path d="M593.35 142.07V150M595.47 124.5V132.43M592.89 126.05V133.98M597.98 124.5V132.43M603.41 124.98V128.67M605.64 123.58V127.27M608.5 124.2V127.89M585.21 126.36V134.29M583.08 127.47V135.4M575.44 125.63V133.56M573.28 127.47V135.4M570.57 127.09V135.02M561.17 126.82V134.75M558 128.47V136.4M555.08 129.33V137.26M551.75 129.33V137.26M548.56 127.47V135.4M546.5 129.33V137.26M543.96 128.47V136.4M533.91 129.07V137M532.31 130.79V138.72M530.33 129.6V137.53M527.81 131.05V138.98M525.35 132.05V139.98M521.93 130.59V138.52M519.29 129.6V137.53M514.47 131.43V139.36M512.42 130.79V138.72M509.8 132.43V140.36M506.85 131.43V139.36M501.95 133.3V141.23M499.09 133.77V141.7M497.05 133.03V140.96M494.71 134.55V142.48M490.38 133.98V141.91M426.62 143.24V151.17M424.13 144.76V152.68M418.81 145.74V153.67M415.73 145.33V153.25M413.42 147.2V155.13M410.52 146.79V154.72M408.1 148.1V156.03" stroke="white" stroke-miterlimit="10" stroke-linecap="round"/>
<path d="M538.48 127.89L537.03 134.29L540.28 134.55L538.48 127.89ZM564.53 126.05L563.01 132.05H566.4L564.53 126.05ZM588.64 122.81L587.33 129.6L590.5 129.33L588.64 122.81ZM483.83 138.98L483.14 134.29L482.38 140.36L483.83 138.98ZM478.37 139.98L476.71 135.02L475.4 141.7L473.46 141.91L472.43 137.53L471.28 142.77H468.9L468.07 136.02L467.38 143.33H465.31L463.93 139.36L463.31 143.33L460.26 143.75L459.12 139.98L458.57 144.02L447.9 145.06L446.93 140.36L445.96 145.4H442.92L441.75 140.36L440.57 146.06L438.29 145.54L437.39 141.23L436.5 146.06H432.73L431.25 141.91L430 146.65L428.41 143.54L427.93 146.65L428.55 148.72H459.12L479.82 144.71L478.37 139.98Z" fill="white"/>
<path d="M76.3198 167.36V25.77M76.3198 71.46L62.8198 57.97M76.3198 101.15L95.9798 81.49M76.3198 135.97L53.5898 113.24M123.1 71.46V154.3M123.1 108.65L131.9 99.86M123.1 135.97L114.34 127.21M165.28 72.42V165.57M175.21 91.22L165.28 101.15M165.28 142.77L144.65 122.14M805.52 119.51V181.88M814.89 134.77L806.21 143.45M792.41 156.72L805.52 169.84M842.47 83.57V163.28M850.77 102.64L843 110.4M831.22 134.77L842.47 146.01M881.55 40.48V146.01M887.44 75.6L881.55 81.49M871.11 115.76L881.55 126.2M908.17 88.95V153.88M918.36 104.14L908.17 114.33M897.98 129.13L908.17 139.32M950.48 53.9V136.12M960.48 79.32L950.66 89.14M938.88 98.58L950.48 110.17" stroke="#E8F0FE" stroke-linecap="round" stroke-linejoin="round"/>
<path d="M268.29 156.79C268.704 156.79 269.101 156.626 269.394 156.333C269.686 156.04 269.85 155.644 269.85 155.23C269.85 154.816 269.686 154.419 269.394 154.127C269.101 153.834 268.704 153.67 268.29 153.67C267.877 153.67 267.48 153.834 267.187 154.127C266.895 154.419 266.73 154.816 266.73 155.23C266.73 155.644 266.895 156.04 267.187 156.333C267.48 156.626 267.877 156.79 268.29 156.79Z" fill="white"/>
<path d="M254.1 174.11C254.1 174.11 258.47 161.29 268.29 155.23M261.62 161.09L260.63 156.38M257.96 166.19H262.37M295.49 187.35C295.49 187.35 296.27 176.64 301.49 170.45" stroke="white" stroke-miterlimit="10"/>
<path d="M269.17 171.29C269.584 171.29 269.981 171.125 270.274 170.833C270.566 170.54 270.731 170.143 270.73 169.729C270.73 169.315 270.566 168.918 270.273 168.626C269.98 168.333 269.583 168.169 269.169 168.169C268.964 168.169 268.762 168.209 268.572 168.288C268.383 168.366 268.211 168.481 268.066 168.626C267.921 168.771 267.806 168.943 267.728 169.133C267.65 169.322 267.609 169.525 267.609 169.73C267.609 169.935 267.65 170.138 267.728 170.327C267.807 170.516 267.922 170.688 268.067 170.833C268.212 170.978 268.384 171.093 268.573 171.171C268.763 171.25 268.965 171.29 269.17 171.29ZM301.48 172.1C301.894 172.1 302.291 171.935 302.584 171.643C302.876 171.35 303.041 170.953 303.04 170.539C303.04 170.125 302.876 169.728 302.583 169.436C302.29 169.143 301.893 168.979 301.479 168.979C301.274 168.979 301.072 169.019 300.882 169.098C300.693 169.176 300.521 169.291 300.376 169.436C300.084 169.729 299.919 170.126 299.919 170.54C299.92 170.954 300.084 171.351 300.377 171.643C300.67 171.936 301.067 172.1 301.48 172.1Z" fill="white"/>
<path d="M269.53 170.94C269.53 170.94 272.2 179.6 271.38 184.74M298.33 175.75L296.03 170.94M296.75 180.38L300.64 179.45M267.55 175.42L270.8 176.07M270.54 173.57L272.47 171.63" stroke="white" stroke-miterlimit="10"/>
<path d="M473.29 25.48L471.91 25.83C471.776 25.8646 471.65 25.9289 471.544 26.0183C471.437 26.1077 471.352 26.2198 471.294 26.3464C471.237 26.473 471.208 26.6109 471.211 26.75C471.214 26.889 471.248 27.0257 471.31 27.15L475.56 35.62L483.67 33.56L474.54 25.77C474.369 25.6269 474.167 25.5261 473.95 25.4757C473.733 25.4253 473.507 25.4268 473.29 25.48Z" fill="#8AB4F8"/>
<path d="M475.56 35.62L471.31 27.15C471.247 27.0259 471.212 26.8891 471.209 26.7499C471.206 26.6106 471.235 26.4725 471.292 26.3457C471.35 26.2189 471.435 26.1068 471.542 26.0175C471.649 25.9282 471.775 25.8641 471.91 25.83L472.16 25.77L476.93 35.27L475.56 35.62Z" fill="white"/>
<path d="M463.336 38.207L491.808 31.124C492.106 31.0497 492.416 31.035 492.72 31.0805C493.024 31.1261 493.316 31.2311 493.579 31.3895C493.843 31.5479 494.072 31.7567 494.255 32.0038C494.438 32.251 494.57 32.5317 494.644 32.83C494.757 33.2799 494.734 33.7533 494.578 34.1903C494.422 34.6272 494.14 35.0082 493.768 35.285C493.52 35.4683 493.239 35.6008 492.94 35.675L464.468 42.758L463.336 38.207Z" fill="white"/>
<path d="M463.79 34.4203C463.616 34.4615 463.452 34.5367 463.308 34.6416C463.163 34.7464 463.04 34.8789 462.947 35.0313C462.854 35.1839 462.792 35.3534 462.765 35.5301C462.738 35.7067 462.747 35.8869 462.79 36.0603L463.88 40.4803L468.69 39.2803L465.16 34.8803C464.999 34.6817 464.784 34.533 464.542 34.4516C464.299 34.3701 464.039 34.3593 463.79 34.4203Z" fill="white"/>
<path d="M464.49 42.8903L493 35.8003C493.51 35.6735 493.962 35.3785 494.283 34.9629C494.604 34.5473 494.776 34.0355 494.77 33.5103L464.09 41.1403L464.49 42.8903Z" fill="#8AB4F8"/>
<path d="M478.83 50L477.45 50.34C477.246 50.3929 477.029 50.3743 476.837 50.2874C476.644 50.2005 476.487 50.0504 476.392 49.862C476.328 49.7375 476.293 49.6 476.29 49.46L476 40L484.12 38L479.75 49.17C479.671 49.3697 479.546 49.5484 479.387 49.6923C479.227 49.8363 479.037 49.9415 478.83 50Z" fill="#8AB4F8"/>
<path d="M476 40.0002L476.25 49.4702C476.253 49.6102 476.287 49.7478 476.351 49.8725C476.415 49.9973 476.506 50.1059 476.618 50.1902C476.729 50.2752 476.858 50.3338 476.996 50.3615C477.133 50.3893 477.275 50.3854 477.41 50.3502L477.66 50.2902L477.38 39.6602L476 40.0002Z" fill="white"/>
<path d="M706.75 169.54H755.16" stroke="#AECBFA" stroke-miterlimit="10"/>
<path d="M731.41 142C730.955 140.715 730.882 139.326 731.2 138" stroke="#F4AFB6" stroke-width="1.98" stroke-miterlimit="10" stroke-linecap="round"/>
<path d="M732.211 140.79C732.406 142.2 733.119 143.487 734.211 144.4C734.732 144.827 735.34 145.138 735.992 145.31C736.644 145.483 737.326 145.514 737.99 145.4L738.47 148.59C737.368 148.768 736.241 148.713 735.161 148.429C734.081 148.144 733.073 147.637 732.201 146.94C730.475 145.521 729.346 143.504 729.04 141.29C729.011 141.131 728.99 140.971 728.98 140.81" fill="#56A55C"/>
<path d="M740.81 143.8H737.55V146.38H740.81V143.8Z" fill="#F4AFB6"/>
<path d="M739.79 144.96C740.246 144.96 740.697 144.87 741.118 144.696C741.539 144.521 741.922 144.266 742.244 143.943C742.566 143.621 742.822 143.238 742.996 142.817C743.171 142.396 743.26 141.945 743.26 141.489C743.26 141.033 743.17 140.582 742.996 140.161C742.822 139.74 742.566 139.357 742.244 139.035C741.921 138.713 741.539 138.457 741.117 138.283C740.696 138.109 740.245 138.019 739.789 138.019C738.869 138.019 737.986 138.385 737.336 139.036C736.685 139.687 736.319 140.57 736.319 141.49C736.319 142.41 736.685 143.293 737.336 143.944C737.987 144.595 738.87 144.96 739.79 144.96Z" fill="#EE675C"/>
<path d="M739 145.5H740.56C741.259 145.595 741.911 145.906 742.424 146.391C742.937 146.875 743.285 147.508 743.42 148.2L743.24 156.4H732.79L733.89 145.4" fill="#56A55C"/>
<path d="M734.08 156.4L731.08 170.04H735.18L738.18 160.63L738.84 170.04H743C743 170.04 743.12 164.84 743.27 156.4H734.08Z" fill="#343659"/>
<path d="M713.8 108.73H709V115.88H713.8V108.73ZM723.23 123.1C727.113 126.479 730.337 130.548 732.74 135.1C732.74 135.1 733.61 137.19 732.41 138.4C732.41 138.4 730.99 139.74 729.99 138.4C728.99 137.06 730.16 135.4 730.16 135.4C730.16 135.4 727.54 131.64 721.16 126.5L723.23 123.1Z" fill="#F4AFB6"/>
<path d="M717.15 110.83L722.02 112.34C727.3 113.96 728.85 109.54 728.85 109.54C741.22 113.35 742.05 104.19 742.05 104.19C739.45 108.19 735.2 105.88 729.84 104.19C724.48 102.5 723.95 106.05 723.95 106.05C722.141 105.467 720.448 104.57 718.95 103.4C717.36 101.97 715.79 100.31 713.72 99.6C712.659 99.225 711.514 99.1526 710.414 99.3911C709.313 99.6295 708.301 100.169 707.49 100.95C706.874 101.612 706.422 102.409 706.168 103.277C705.915 104.145 705.868 105.06 706.03 105.95C706.155 106.937 706.478 107.889 706.98 108.748C707.481 109.607 708.152 110.356 708.95 110.95C712.57 113.59 717.15 110.83 717.15 110.83Z" fill="#EE675C"/>
<path d="M718.65 144.47C720.505 153.461 723.826 162.086 728.48 170H720.37C716.51 165.264 713.508 159.89 711.5 154.12C711.5 154.12 713.18 167.6 714 170H706.67C701.755 158.553 700.668 145.825 703.57 133.71H717.89V134.8C717.76 138.042 718.015 141.288 718.65 144.47Z" fill="#F9AB00"/>
<path d="M717.85 136.52H698.52L702.45 118.12L696.6 112.28L700.99 107.89L707.21 113.14C707.21 113.14 717.39 115.2 723.21 123.14C722.024 125.606 720.412 127.844 718.45 129.75L717.85 136.52Z" fill="#4285F4"/>
<path d="M718.461 113.328L707.252 113.248C707.005 113.246 706.76 113.293 706.532 113.386C706.303 113.479 706.095 113.616 705.919 113.789C705.743 113.962 705.603 114.168 705.507 114.396C705.41 114.623 705.36 114.867 705.358 115.114L705.244 131.054C705.242 131.301 705.289 131.546 705.382 131.775C705.475 132.003 705.612 132.211 705.786 132.387C705.959 132.563 706.165 132.703 706.393 132.799C706.62 132.895 706.864 132.945 707.111 132.947L718.32 133.027C718.567 133.029 718.812 132.982 719.041 132.889C719.269 132.797 719.478 132.66 719.654 132.486C719.83 132.313 719.97 132.107 720.066 131.879C720.162 131.652 720.212 131.408 720.214 131.161L720.328 115.221C720.33 114.974 720.283 114.729 720.19 114.501C720.097 114.272 719.96 114.064 719.787 113.888C719.613 113.712 719.407 113.572 719.18 113.476C718.952 113.38 718.708 113.33 718.461 113.328Z" fill="#4B4D75"/>
<path d="M710.78 132.94H707.12C706.748 132.94 706.384 132.828 706.076 132.62C705.767 132.412 705.527 132.117 705.387 131.772C705.294 131.543 705.247 131.298 705.25 131.05L705.36 115.11C705.365 114.611 705.567 114.133 705.923 113.782C706.28 113.432 706.76 113.237 707.26 113.24H708.93C709.177 113.241 709.421 113.291 709.648 113.386C709.875 113.482 710.081 113.622 710.253 113.798C710.426 113.974 710.563 114.182 710.655 114.411C710.747 114.639 710.793 114.884 710.79 115.13L710.78 132.94Z" fill="#343757"/>
<path d="M701 107.89L682.28 90.6003C682.166 90.4998 682.018 90.4443 681.865 90.4443C681.713 90.4443 681.565 90.4998 681.45 90.6003C681.336 90.707 681.267 90.8528 681.255 91.0086C681.244 91.1643 681.293 91.3186 681.39 91.4403L683.32 93.7603V94.3803C683.316 95.1243 683.599 95.8403 684.11 96.3803L697.92 111L701 107.89Z" fill="#F4AFB6"/>
<path d="M712.72 170C711.24 163.56 709.03 151.59 710.72 142.88L711.94 143.12C711.23 146.76 710.57 155.21 713.94 170H712.72Z" fill="#F29900"/>
<path d="M709.88 137.59C709.014 137.544 708.198 137.167 707.602 136.537C707.005 135.907 706.673 135.072 706.674 134.205C706.673 133.337 707.005 132.503 707.601 131.873C708.198 131.243 709.014 130.866 709.88 130.82H720.48C720.94 130.795 721.4 130.864 721.833 131.023C722.265 131.182 722.661 131.427 722.995 131.744C723.329 132.06 723.596 132.442 723.778 132.865C723.96 133.288 724.054 133.744 724.054 134.205C724.054 134.666 723.96 135.121 723.778 135.545C723.596 135.968 723.329 136.349 722.995 136.666C722.661 136.983 722.265 137.228 721.833 137.387C721.4 137.546 720.94 137.615 720.48 137.59H709.88Z" fill="#EA4335"/>
<path d="M709.88 137.59C710.324 137.59 710.763 137.503 711.173 137.333C711.584 137.163 711.956 136.914 712.27 136.6C712.584 136.286 712.833 135.914 713.003 135.504C713.173 135.093 713.26 134.654 713.26 134.21C713.26 133.766 713.173 133.327 713.003 132.917C712.833 132.507 712.584 132.134 712.27 131.82C711.956 131.506 711.584 131.257 711.173 131.087C710.763 130.917 710.324 130.83 709.88 130.83C708.984 130.83 708.124 131.186 707.49 131.82C706.856 132.454 706.5 133.314 706.5 134.21C706.5 135.107 706.856 135.966 707.49 136.6C708.124 137.234 708.984 137.59 709.88 137.59Z" fill="#C5221F"/>
<path d="M715.09 113.27H720.09C720.59 113.275 721.067 113.478 721.418 113.834C721.768 114.19 721.963 114.67 721.96 115.17L721.9 120.68C721.9 120.927 721.85 121.171 721.754 121.399C721.658 121.626 721.518 121.833 721.342 122.006C721.167 122.18 720.959 122.317 720.731 122.411C720.502 122.504 720.257 122.551 720.01 122.55H714.94" fill="#4B4D75"/>
<path d="M720.28 123.1H713.28C712.876 123.101 712.475 123.021 712.101 122.866C711.728 122.711 711.388 122.485 711.102 122.199C710.816 121.913 710.589 121.573 710.434 121.199C710.28 120.825 710.2 120.425 710.2 120.02V115.88" stroke="#343757" stroke-width="1.24" stroke-miterlimit="10"/>
<path d="M709.88 135.95C710.108 135.95 710.334 135.905 710.546 135.818C710.757 135.73 710.948 135.602 711.11 135.441C711.272 135.279 711.4 135.087 711.487 134.876C711.575 134.665 711.62 134.439 711.62 134.21C711.62 133.982 711.575 133.755 711.487 133.544C711.4 133.333 711.272 133.141 711.11 132.98C710.948 132.818 710.757 132.69 710.546 132.603C710.334 132.515 710.108 132.47 709.88 132.47C709.418 132.47 708.976 132.654 708.649 132.98C708.323 133.306 708.14 133.749 708.14 134.21C708.14 134.672 708.323 135.114 708.649 135.441C708.976 135.767 709.418 135.95 709.88 135.95Z" fill="#DA5040"/>
<path d="M716.97 122.53H714.6V126.11H716.97V122.53Z" fill="#343757"/>
<path d="M741.77 154.51H737.71C737.569 154.51 737.429 154.482 737.298 154.428C737.035 154.317 736.826 154.106 736.718 153.842C736.665 153.711 736.638 153.571 736.64 153.43V148.2C736.639 147.792 736.718 147.388 736.873 147.011C737.028 146.634 737.256 146.291 737.544 146.001C737.832 145.712 738.174 145.483 738.551 145.327C738.928 145.171 739.332 145.09 739.74 145.09H741.59L742.85 153.43C742.85 153.716 742.736 153.991 742.534 154.194C742.331 154.396 742.056 154.51 741.77 154.51Z" fill="#1967D2"/>
<path d="M741.49 145.09C742.314 145.09 743.105 145.418 743.689 146.001C744.272 146.584 744.6 147.376 744.6 148.2V153.44C744.6 153.724 744.487 153.996 744.287 154.197C744.086 154.397 743.814 154.51 743.53 154.51H739.46C739.176 154.51 738.904 154.398 738.703 154.197C738.502 153.996 738.39 153.724 738.39 153.44V148.2C738.39 147.376 738.717 146.584 739.301 146.001C739.884 145.418 740.675 145.09 741.5 145.09H741.49Z" fill="#4285F4"/>
<path d="M739.54 149.94V148.2C739.556 147.68 739.774 147.188 740.148 146.826C740.521 146.464 741.02 146.262 741.54 146.262C742.06 146.262 742.559 146.464 742.932 146.826C743.306 147.188 743.524 147.68 743.54 148.2V149.94" stroke="#265BB6" stroke-miterlimit="10"/>
<path d="M742.19 146.26C742.665 146.26 743.121 146.071 743.457 145.735C743.792 145.399 743.981 144.943 743.98 144.468C743.98 143.993 743.791 143.538 743.455 143.202C743.119 142.866 742.663 142.678 742.188 142.678C741.953 142.678 741.72 142.725 741.503 142.815C741.286 142.905 741.089 143.037 740.922 143.204C740.587 143.54 740.398 143.995 740.398 144.47C740.399 144.945 740.588 145.401 740.924 145.736C741.26 146.072 741.715 146.26 742.19 146.26Z" fill="#EE675C"/>
<path d="M763.83 169.26C764.167 169.26 764.49 169.126 764.728 168.888C764.966 168.649 765.1 168.326 765.1 167.989C765.099 167.652 764.965 167.329 764.727 167.091C764.489 166.853 764.166 166.719 763.829 166.719C763.662 166.719 763.497 166.752 763.342 166.816C763.188 166.88 763.048 166.974 762.93 167.092C762.692 167.33 762.558 167.653 762.559 167.99C762.559 168.327 762.693 168.65 762.931 168.888C763.169 169.127 763.493 169.26 763.83 169.26Z" fill="white"/>
<path d="M755.22 184C755.22 184 755.28 175.48 763.83 168M758.25 174.27L762.15 173.12M756.95 176.86L755.11 173.89" stroke="white" stroke-miterlimit="10"/>
</g>
</g>
<defs>
<clipPath id="clip0_191_7">
<rect width="1024" height="245" fill="white"/>
</clipPath>
</defs>
</svg>
